<svg width="40" height="40" viewBox="0 0 40 40" fill="none" xmlns="http://www.w3.org/2000/svg">
<path d="M33.3337 18.3333C33.3337 10.9695 27.3642 5 20.0003 5C12.6365 5 6.66699 10.9695 6.66699 18.3333" stroke="#FAFAFA" stroke-width="2" stroke-linecap="round" stroke-linejoin="round"/>
<path d="M3.33301 25.7306V22.6026C3.33301 21.0729 4.37399 19.7397 5.85789 19.3687L8.75714 18.6439C9.38829 18.4861 9.99967 18.9634 9.99967 19.6141V28.7191C9.99967 29.3697 9.38829 29.8471 8.75714 29.6892L5.85789 28.9644C4.37399 28.5934 3.33301 27.2602 3.33301 25.7306Z" stroke="#FAFAFA" stroke-width="2"/>
<path d="M36.6667 25.7306V22.6026C36.6667 21.0729 35.6257 19.7397 34.1418 19.3687L31.2425 18.6439C30.6113 18.4861 30 18.9634 30 19.6141V28.7191C30 29.3697 30.6113 29.8471 31.2425 29.6892L34.1418 28.9644C35.6257 28.5934 36.6667 27.2602 36.6667 25.7306Z" stroke="#FAFAFA" stroke-width="2"/>
<path d="M33.3337 30V30.8333C33.3337 32.6743 31.8413 34.1667 30.0003 34.1667H24.167" stroke="#FAFAFA" stroke-width="2"/>
<path d="M22.5 36.6667H17.5C16.1193 36.6667 15 35.5474 15 34.1667C15 32.7861 16.1193 31.6667 17.5 31.6667H22.5C23.8807 31.6667 25 32.7861 25 34.1667C25 35.5474 23.8807 36.6667 22.5 36.6667Z" stroke="#FAFAFA" stroke-width="2"/>
</svg>
