<svg width="40" height="40" viewBox="0 0 40 40" fill="none" xmlns="http://www.w3.org/2000/svg">
<g clip-path="url(#clip0_227_4)">
<path d="M27.5 27.5V35H7.5V5H20V2.5H7.5C6.83696 2.5 6.20107 2.76339 5.73223 3.23223C5.26339 3.70107 5 4.33696 5 5V35C5 35.663 5.26339 36.2989 5.73223 36.7678C6.20107 37.2366 6.83696 37.5 7.5 37.5H27.5C28.163 37.5 28.7989 37.2366 29.2678 36.7678C29.7366 36.2989 30 35.663 30 35V27.5H27.5Z" fill="#FAFAFA"/>
<path d="M36.925 7.19989L32.8 3.07489C32.4261 2.70843 31.9235 2.50317 31.4 2.50317C30.8765 2.50317 30.3739 2.70843 30 3.07489L12.5 20.5749V27.4999H19.4125L36.9125 9.99989C37.279 9.62603 37.4842 9.12339 37.4842 8.59989C37.4842 8.07638 37.279 7.57375 36.9125 7.19989H36.925ZM18.375 24.9999H15V21.6249L26.8 9.81239L30.1875 13.1999L18.375 24.9999ZM31.95 11.4374L28.5625 8.04989L31.4 5.21239L34.7875 8.59989L31.95 11.4374Z" fill="#FAFAFA"/>
</g>
<defs>
<clipPath id="clip0_227_4">
<rect width="40" height="40" fill="white"/>
</clipPath>
</defs>
</svg>
